<?xml version="1.0" encoding="UTF-8" standalone="no"?>
<!-- Uploaded to: SVG Repo, www.svgrepo.com, Generator: SVG Repo Mixer Tools -->

<svg
   fill="#000000"
   width="800px"
   height="800px"
   viewBox="0 0 256 256"
   id="Flat"
   version="1.1"
   sodipodi:docname="youtube-logo-fill-svgrepo-com.svg"
   inkscape:version="1.4 (e7c3feb1, 2024-10-09)"
   xmlns:inkscape="http://www.inkscape.org/namespaces/inkscape"
   xmlns:sodipodi="http://sodipodi.sourceforge.net/DTD/sodipodi-0.dtd"
   xmlns="http://www.w3.org/2000/svg"
   xmlns:svg="http://www.w3.org/2000/svg">
  <defs
     id="defs1" />
  <sodipodi:namedview
     id="namedview1"
     pagecolor="#ffffff"
     bordercolor="#000000"
     borderopacity="0.25"
     inkscape:showpageshadow="2"
     inkscape:pageopacity="0.0"
     inkscape:pagecheckerboard="0"
     inkscape:deskcolor="#d1d1d1"
     inkscape:zoom="1.03625"
     inkscape:cx="400"
     inkscape:cy="400"
     inkscape:window-width="1680"
     inkscape:window-height="978"
     inkscape:window-x="0"
     inkscape:window-y="25"
     inkscape:window-maximized="0"
     inkscape:current-layer="Flat" />
  <path
     d="M234.33057,69.79736a23.96369,23.96369,0,0,0-14.50489-16.34619C185.55615,40.28223,130.97949,40.39209,128,40.40771c-2.978-.02392-57.55518-.126-91.8252,13.04346A23.96415,23.96415,0,0,0,21.66992,69.79639C19.083,79.72705,16,97.88574,16,128c0,30.11377,3.083,48.27246,5.66943,58.20264a23.96369,23.96369,0,0,0,14.50489,16.34619c32.80615,12.60693,84.22168,13.04541,91.167,13.04541.6206.00049.69678.00049,1.31738,0,6.95069-.00049,58.36231-.43945,91.16651-13.04541a23.96415,23.96415,0,0,0,14.50488-16.34522C236.917,176.273,240,158.11426,240,128,240,97.88623,236.917,79.72754,234.33057,69.79736Zm-72.11182,61.53076-48,32A3.99967,3.99967,0,0,1,108,160V96a3.99968,3.99968,0,0,1,6.21875-3.32813l48,32a3.99979,3.99979,0,0,1,0,6.65625Z"
     id="path1"
     style="fill:#828282;fill-opacity:1" />
</svg>
